<svg xmlns="http://www.w3.org/2000/svg" version="1.1" xmlns:xlink="http://www.w3.org/1999/xlink" xmlns:svgjs="http://svgjs.dev/svgjs" width="1500" height="1500" viewBox="0 0 1500 1500"><rect width="1500" height="1500" fill="#ffffff"></rect><g transform="matrix(0.6666666666666666,0,0,0.6666666666666666,249.39393939393938,554.9474963459435)"><svg viewBox="0 0 396 155" data-background-color="#ffffff" preserveAspectRatio="xMidYMid meet" height="587" width="1500" xmlns="http://www.w3.org/2000/svg" xmlns:xlink="http://www.w3.org/1999/xlink"><g id="tight-bounds" transform="matrix(1,0,0,1,0.2400000000000091,-0.24325877415988373)"><svg viewBox="0 0 395.52 155.48651754831977" height="155.48651754831977" width="395.52"><g><svg viewBox="0 0 397.4975999999999 156.26395013606134" height="155.48651754831977" width="395.52"><g><rect width="397.4975999999999" height="5.499692706481315" x="0" y="75.38212871479001" fill="#000000" opacity="1" stroke-width="0" stroke="transparent" fill-opacity="1" class="rect-qz-0" data-fill-palette-color="primary" rx="1%" id="qz-0" data-palette-color="#000000"></rect></g><g transform="matrix(1,0,0,1,0.9887999999999693,95.27892274713864)"><svg viewBox="0 0 395.52 60.9850273889227" height="60.9850273889227" width="395.52"><g id="textblocktransform"><svg viewBox="0 0 395.52 60.9850273889227" height="60.9850273889227" width="395.52" id="textblock"><g><svg viewBox="0 0 395.52 60.9850273889227" height="60.9850273889227" width="395.52"><g transform="matrix(1,0,0,1,0,0)"><svg width="395.52" viewBox="2.25 -37.5 246.43 38" height="60.9850273889227" data-palette-color="#000000"><path d="M12.5 0.5L12.5 0.5Q9.95 0.5 8.03-1.1 6.1-2.7 4.83-5.43 3.55-8.15 2.9-11.55 2.25-14.95 2.25-18.5L2.25-18.5Q2.25-22.05 2.9-25.45 3.55-28.85 4.83-31.58 6.1-34.3 8.03-35.9 9.95-37.5 12.5-37.5L12.5-37.5Q15.05-37.5 16.98-35.9 18.9-34.3 20.18-31.58 21.45-28.85 22.1-25.45 22.75-22.05 22.75-18.5L22.75-18.5Q22.75-14.95 22.1-11.55 21.45-8.15 20.18-5.43 18.9-2.7 16.98-1.1 15.05 0.5 12.5 0.5ZM12.5-1.35L12.5-1.35Q15.45-1.35 17-3.65 18.55-5.95 18.55-10.25L18.55-10.25 18.55-26.75Q18.55-31.05 17-33.35 15.45-35.65 12.5-35.65L12.5-35.65Q9.6-35.65 8.03-33.35 6.45-31.05 6.45-26.75L6.45-26.75 6.45-10.25Q6.45-5.95 8-3.65 9.55-1.35 12.5-1.35ZM48.65 0L26.35 0 26.35-1.7 35.8-1.7 35.8-34.4 28.7-34.4 28.7-35.6 35.8-36.25 38-37.5 39.2-37.5 39.2-1.7 48.65-1.7 48.65 0ZM73.65 0L51.35 0 51.35-1.7 60.8-1.7 60.8-24.4 53.7-24.4 53.7-25.6 60.8-26.25 63-27.5 64.2-27.5 64.2-1.7 73.65-1.7 73.65 0ZM62.5-31.5L62.5-31.5Q61.35-31.5 60.55-32.3 59.75-33.1 59.75-34.25L59.75-34.25Q59.75-35.4 60.55-36.2 61.35-37 62.5-37L62.5-37Q63.65-37 64.45-36.2 65.25-35.4 65.25-34.25L65.25-34.25Q65.25-33.1 64.45-32.3 63.65-31.5 62.5-31.5ZM83.99 0L76.09 0 76.09-1.7 78.29-1.7 78.29-24.4 75.59-24.4 75.59-25.4 78.59-26.15 80.59-27.5 81.54-27.5 81.54-23.95 81.69-23.95Q82.09-25.1 83.27-26.3 84.44-27.5 86.14-27.5L86.14-27.5Q87.49-27.5 88.37-26.6 89.24-25.7 89.34-23.95L89.34-23.95 89.49-23.95Q89.94-25.1 91.09-26.3 92.24-27.5 93.94-27.5L93.94-27.5Q95.49-27.5 96.34-26.48 97.19-25.45 97.19-23.5L97.19-23.5 97.19-1.7 99.64-1.7 99.64 0 93.94 0 93.94-23.35Q93.94-25.25 92.29-25.25L92.29-25.25Q91.39-25.25 90.77-24.63 90.14-24 89.79-23.08 89.44-22.15 89.34-21.3L89.34-21.3 89.34-1.7 91.79-1.7 91.79 0 86.14 0 86.14-23.35Q86.14-25.25 84.34-25.25L84.34-25.25Q83.49-25.25 82.89-24.63 82.29-24 81.97-23.08 81.64-22.15 81.54-21.3L81.54-21.3 81.54-1.7 83.99-1.7 83.99 0ZM109.19 0.5L109.19 0.5Q106.44 0.5 104.87-1.18 103.29-2.85 103.29-5.25L103.29-5.25Q103.29-7.5 104.42-8.97 105.54-10.45 107.24-11.45 108.94-12.45 110.59-13.2L110.59-13.2 115.69-15.55 115.69-20.4Q115.69-22.85 114.14-24.25 112.59-25.65 110.24-25.65L110.24-25.65Q108.09-25.65 106.69-24.6 105.29-23.55 104.74-22.55L104.74-22.55Q105.89-21.35 106.47-20.65 107.04-19.95 107.04-19L107.04-19Q107.04-18.15 106.47-17.4 105.89-16.65 104.74-16.65L104.74-16.65Q103.64-16.65 103.02-17.43 102.39-18.2 102.39-19.35L102.39-19.35Q102.39-20.5 102.97-21.88 103.54-23.25 104.72-24.55 105.89-25.85 107.69-26.68 109.49-27.5 111.94-27.5L111.94-27.5Q114.59-27.5 116.17-26.45 117.74-25.4 118.42-23.78 119.09-22.15 119.09-20.4L119.09-20.4 119.09-4.2Q119.09-2.1 120.54-2.1L120.54-2.1Q121.49-2.1 122.04-2.88 122.59-3.65 122.79-4.4L122.79-4.4 123.69-4.1Q123.54-3.1 122.99-2.02 122.44-0.95 121.52-0.23 120.59 0.5 119.24 0.5L119.24 0.5Q117.74 0.5 116.72-0.5 115.69-1.5 115.69-3.6L115.69-3.6Q115.29-2.7 114.39-1.75 113.49-0.8 112.19-0.15 110.89 0.5 109.19 0.5ZM106.34-6.4L106.34-6.4Q106.34-4.45 107.54-3.08 108.74-1.7 110.74-1.7L110.74-1.7Q112.04-1.7 113.07-2.27 114.09-2.85 114.77-3.65 115.44-4.45 115.69-5.2L115.69-5.2 115.69-14.35 110.94-12Q109.79-11.45 108.74-10.78 107.69-10.1 107.02-9.1 106.34-8.1 106.34-6.4ZM138.24 0L125.69 0 125.69-1.4 129.89-1.8 129.89-24.4 124.79-24.4 124.79-25.6 129.89-26.25 132.09-27.5 133.29-27.5 133.29-23.45 133.44-23.45Q133.84-24.35 134.69-25.28 135.54-26.2 136.84-26.85 138.14-27.5 139.84-27.5L139.84-27.5Q142.29-27.5 143.71-25.98 145.14-24.45 145.14-21.5L145.14-21.5 145.14-1.7 149.34-1.7 149.34 0 141.74 0 141.74-21.2Q141.74-25.2 138.24-25.2L138.24-25.2Q136.84-25.2 135.81-24.55 134.79-23.9 134.16-22.93 133.54-21.95 133.29-21.05L133.29-21.05 133.29-1.8 138.24-1.4 138.24 0ZM164.84 0.5L164.84 0.5Q161.19 0.5 158.91-1.78 156.64-4.05 156.64-8.5L156.64-8.5 156.64-25.4 150.94-25.4 150.94-27 156.64-27 158.89-32.35 160.04-32.35 160.04-27 173.09-27 173.09-25.4 160.04-25.4 160.04-8.75Q160.04-5.3 161.44-3.43 162.84-1.55 165.59-1.55L165.59-1.55Q167.79-1.55 169.11-2.6 170.44-3.65 171.01-5.38 171.59-7.1 171.59-9.1L171.59-9.1 171.59-10.4 173.09-10.4 173.09-9.1Q173.09-7.7 172.74-6.03 172.39-4.35 171.51-2.88 170.64-1.4 169.01-0.45 167.39 0.5 164.84 0.5ZM188.68 0.5L188.68 0.5Q185.63 0.5 183.21-1.23 180.78-2.95 179.41-6.05 178.03-9.15 178.03-13.25L178.03-13.25Q178.03-15.95 178.66-18.48 179.28-21 180.61-23.05 181.93-25.1 183.91-26.3 185.88-27.5 188.58-27.5L188.58-27.5Q192.53-27.5 194.96-24.8 197.38-22.1 197.38-17.25L197.38-17.25Q197.38-16.6 197.36-16.05 197.33-15.5 197.28-15.2L197.28-15.2 181.73-15.2 181.73-11Q181.73-7.85 182.83-5.78 183.93-3.7 185.73-2.65 187.53-1.6 189.53-1.6L189.53-1.6Q191.43-1.6 192.76-2.4 194.08-3.2 194.91-4.38 195.73-5.55 196.03-6.6L196.03-6.6 197.08-6.25Q196.78-4.8 195.73-3.23 194.68-1.65 192.93-0.58 191.18 0.5 188.68 0.5ZM188.48-25.9L188.48-25.9Q186.38-25.9 184.91-24.68 183.43-23.45 182.63-21.33 181.83-19.2 181.73-16.5L181.73-16.5 191.73-16.5Q192.28-16.5 192.81-16.63 193.33-16.75 193.71-17.38 194.08-18 194.08-19.5L194.08-19.5Q194.08-22.6 192.48-24.25 190.88-25.9 188.48-25.9ZM213.43 0.5L213.43 0.5Q210.48 0.5 208.21-1.23 205.93-2.95 204.66-6.03 203.38-9.1 203.38-13.1L203.38-13.1Q203.38-17.25 204.73-20.5 206.08-23.75 208.51-25.63 210.93-27.5 214.13-27.5L214.13-27.5Q216.33-27.5 218.13-26.63 219.93-25.75 220.98-24.28 222.03-22.8 222.03-20.95L222.03-20.95Q222.03-19.2 221.16-18.4 220.28-17.6 219.28-17.6L219.28-17.6Q218.48-17.6 217.81-18.13 217.13-18.65 217.13-19.6L217.13-19.6Q217.13-20.6 217.88-21.48 218.63-22.35 219.53-23.9L219.53-23.9Q219.03-24.55 217.71-25.23 216.38-25.9 214.48-25.9L214.48-25.9Q210.98-25.9 209.03-23.25 207.08-20.6 207.08-16L207.08-16 207.08-11Q207.08-7.85 208.11-5.78 209.13-3.7 210.78-2.65 212.43-1.6 214.33-1.6L214.33-1.6Q216.13-1.6 217.43-2.4 218.73-3.2 219.53-4.38 220.33-5.55 220.63-6.6L220.63-6.6 221.68-6.25Q221.38-4.8 220.36-3.23 219.33-1.65 217.61-0.58 215.88 0.5 213.43 0.5ZM234.18 0.5L234.18 0.5Q231.43 0.5 229.85-1.18 228.28-2.85 228.28-5.25L228.28-5.25Q228.28-7.5 229.4-8.97 230.53-10.45 232.23-11.45 233.93-12.45 235.58-13.2L235.58-13.2 240.68-15.55 240.68-20.4Q240.68-22.85 239.13-24.25 237.58-25.65 235.23-25.65L235.23-25.65Q233.08-25.65 231.68-24.6 230.28-23.55 229.73-22.55L229.73-22.55Q230.88-21.35 231.45-20.65 232.03-19.95 232.03-19L232.03-19Q232.03-18.15 231.45-17.4 230.88-16.65 229.73-16.65L229.73-16.65Q228.63-16.65 228-17.43 227.38-18.2 227.38-19.35L227.38-19.35Q227.38-20.5 227.95-21.88 228.53-23.25 229.7-24.55 230.88-25.85 232.68-26.68 234.48-27.5 236.93-27.5L236.93-27.5Q239.58-27.5 241.15-26.45 242.73-25.4 243.4-23.78 244.08-22.15 244.08-20.4L244.08-20.4 244.08-4.2Q244.08-2.1 245.53-2.1L245.53-2.1Q246.48-2.1 247.03-2.88 247.58-3.65 247.78-4.4L247.78-4.4 248.68-4.1Q248.53-3.1 247.98-2.02 247.43-0.95 246.5-0.23 245.58 0.5 244.23 0.5L244.23 0.5Q242.73 0.5 241.7-0.5 240.68-1.5 240.68-3.6L240.68-3.6Q240.28-2.7 239.38-1.75 238.48-0.8 237.18-0.15 235.88 0.5 234.18 0.5ZM231.33-6.4L231.33-6.4Q231.33-4.45 232.53-3.08 233.73-1.7 235.73-1.7L235.73-1.7Q237.03-1.7 238.05-2.27 239.08-2.85 239.75-3.65 240.43-4.45 240.68-5.2L240.68-5.2 240.68-14.35 235.93-12Q234.78-11.45 233.73-10.78 232.68-10.1 232-9.1 231.33-8.1 231.33-6.4Z" opacity="1" transform="matrix(1,0,0,1,0,0)" fill="#000000" class="wordmark-text-0" data-fill-palette-color="primary" id="text-0"></path></svg></g></svg></g></svg></g></svg></g><g transform="matrix(1,0,0,1,160.92315449744288,0)"><svg viewBox="0 0 75.65129100511417 60.9850273889227" height="60.9850273889227" width="75.65129100511417"><g><svg xmlns="http://www.w3.org/2000/svg" xmlns:xlink="http://www.w3.org/1999/xlink" version="1.1" x="0" y="0" viewBox="5 13.724 90 72.55199999999999" enable-background="new 0 0 100 100" xml:space="preserve" height="60.9850273889227" width="75.65129100511417" class="icon-icon-0" data-fill-palette-color="accent" id="icon-0"><g fill="#000000" data-fill-palette-color="accent"><path d="M33.371 45.261c0.508 0 0.919-0.41 0.919-0.918v-4.824c0-0.508-0.411-0.919-0.919-0.919s-0.919 0.411-0.919 0.919v4.824C32.452 44.851 32.863 45.261 33.371 45.261z" fill="#000000" data-fill-palette-color="accent"></path><path d="M46.214 37.602c0.18 0.18 0.415 0.27 0.651 0.27 0.233 0 0.47-0.09 0.648-0.27 0.359-0.358 0.359-0.94 0-1.299l-3.411-3.414c-0.359-0.358-0.941-0.358-1.299 0-0.36 0.359-0.36 0.94 0 1.3L46.214 37.602z" fill="#000000" data-fill-palette-color="accent"></path><path d="M19.897 37.874c0.236 0 0.472-0.089 0.651-0.271l3.397-3.414c0.358-0.358 0.356-0.941-0.003-1.299-0.359-0.358-0.942-0.357-1.3 0.004l-3.397 3.413c-0.358 0.358-0.356 0.942 0.003 1.3C19.427 37.785 19.663 37.874 19.897 37.874z" fill="#000000" data-fill-palette-color="accent"></path><path d="M72.424 54.881c-4.273 0-11.511 0.684-15.485 1.959l1.889-8.48c1.852-2.305 2.967-5.225 2.967-8.402 0-7.424-6.038-13.464-13.461-13.464-0.523 0-1.032 0.046-1.49 0.105-0.307-7.151-6.221-12.875-13.447-12.875-7.226 0-13.138 5.724-13.445 12.875-0.458-0.06-0.968-0.105-1.491-0.105C11.039 26.493 5 32.533 5 39.957c0 3.168 1.11 6.083 2.953 8.388l7.873 35.278 0.396 0.11c0.091 0.027 9.149 2.543 17.174 2.543 8.023 0 17.085-2.516 17.175-2.543l0.397-0.11 0.822-3.689c0.225 0.23 0.514 0.464 0.884 0.697 4.834 3.283 13.189 4.992 19.75 4.992 10.587 0 19.488-4.544 21.831-10.843l0.004 0.007 0.016-0.063C95 72.936 95 70.803 95 70.25 95 61.776 84.873 54.881 72.424 54.881zM18.459 27.871c0.754 0 1.471 0.107 2.073 0.212l0.807 0.14v-0.818c0-0.068-0.008-0.139-0.022-0.223 0-6.662 5.419-12.079 12.079-12.079 6.662 0 12.082 5.417 12.078 12.092l-0.019 1.028 0.807-0.14c0.602-0.104 1.317-0.212 2.071-0.212 6.661 0 12.081 5.422 12.081 12.086 0 3.197-1.259 6.104-3.299 8.266-0.089 0.097-0.174 0.197-0.268 0.291-0.185 0.183-0.384 0.355-0.581 0.527-0.111 0.099-0.223 0.2-0.339 0.294-0.197 0.16-0.401 0.309-0.607 0.456-0.131 0.094-0.264 0.187-0.398 0.274-0.203 0.131-0.409 0.257-0.618 0.375-0.156 0.09-0.312 0.173-0.472 0.255-0.2 0.104-0.402 0.203-0.61 0.295-0.186 0.082-0.374 0.155-0.563 0.229-0.192 0.071-0.384 0.147-0.581 0.212-0.222 0.071-0.447 0.133-0.674 0.19-0.177 0.046-0.349 0.096-0.529 0.136-0.271 0.058-0.546 0.099-0.822 0.137-0.144 0.021-0.283 0.05-0.43 0.068-0.426 0.043-0.855 0.069-1.29 0.069-2.531 0-4.973-0.802-7.063-2.319l-0.405-0.295-0.405 0.295c-2.088 1.518-4.576 2.274-7.063 2.274-1.243 0-2.486-0.188-3.68-0.567-1.194-0.38-2.339-0.949-3.383-1.707l-0.406-0.295-0.405 0.295c-1.567 1.137-3.333 1.873-5.185 2.171-0.618 0.099-1.246 0.148-1.878 0.148-0.435 0-0.865-0.026-1.292-0.071-0.141-0.017-0.278-0.045-0.418-0.063-0.28-0.04-0.561-0.083-0.836-0.141-0.173-0.04-0.341-0.088-0.512-0.133-0.233-0.061-0.465-0.122-0.694-0.197-0.189-0.061-0.375-0.133-0.561-0.204-0.197-0.076-0.393-0.152-0.586-0.239-0.2-0.087-0.394-0.185-0.588-0.283-0.168-0.085-0.334-0.176-0.498-0.269-0.201-0.117-0.4-0.236-0.593-0.361-0.146-0.096-0.288-0.198-0.43-0.299-0.197-0.14-0.392-0.281-0.58-0.434-0.127-0.103-0.25-0.215-0.373-0.323-0.187-0.165-0.377-0.327-0.554-0.502-0.099-0.101-0.188-0.209-0.284-0.31-2.028-2.16-3.281-5.058-3.281-8.247C6.378 33.293 11.797 27.871 18.459 27.871zM40.865 51.11c1.785 1.204 3.788 1.93 5.877 2.181L42.645 84.03c-1.652 0.276-3.458 0.527-5.301 0.685l1.392-32.467C39.47 51.93 40.189 51.565 40.865 51.11zM25.928 51.11c0.641 0.433 1.318 0.784 2.014 1.093l1.39 32.502c-1.846-0.166-3.65-0.417-5.301-0.695l-4.091-30.708C22.068 53.062 24.111 52.336 25.928 51.11zM9.791 50.251c0.36 0.303 0.739 0.579 1.125 0.842 0.034 0.022 0.069 0.043 0.104 0.066 0.309 0.204 0.625 0.398 0.949 0.575 0.083 0.045 0.168 0.088 0.252 0.133 0.279 0.146 0.562 0.284 0.85 0.411 0.118 0.05 0.238 0.101 0.359 0.147 0.262 0.107 0.527 0.204 0.797 0.295 0.143 0.046 0.285 0.093 0.429 0.136 0.259 0.075 0.522 0.141 0.786 0.201 0.152 0.035 0.305 0.071 0.459 0.102 0.281 0.056 0.565 0.096 0.852 0.132 0.138 0.018 0.275 0.041 0.415 0.054 0.427 0.043 0.858 0.066 1.292 0.066 0.035 0 0.068-0.008 0.103-0.009l4.044 30.354c-2.684-0.501-4.781-1.022-5.617-1.244L9.791 50.251zM30.714 84.809l-1.37-32.07c2.592 0.814 5.392 0.836 7.989 0.047l-1.372 32.03c-0.858 0.052-1.719 0.083-2.565 0.083C32.511 84.898 31.612 84.866 30.714 84.809zM49.803 82.513c-0.848 0.224-2.993 0.76-5.734 1.266l4.05-30.383c0.072 0 0.143 0.016 0.215 0.016 0.435 0 0.864-0.023 1.293-0.066 0.137-0.013 0.272-0.036 0.408-0.054 0.289-0.036 0.577-0.076 0.861-0.132 0.149-0.028 0.296-0.066 0.444-0.098 0.27-0.062 0.538-0.13 0.805-0.209 0.137-0.039 0.272-0.084 0.409-0.129 0.278-0.091 0.552-0.192 0.822-0.301 0.112-0.048 0.223-0.091 0.333-0.139 0.3-0.131 0.595-0.275 0.885-0.428 0.073-0.037 0.147-0.073 0.22-0.115 0.339-0.184 0.668-0.386 0.99-0.601 0.021-0.015 0.043-0.026 0.063-0.041 0.387-0.262 0.765-0.536 1.125-0.841L49.803 82.513zM72.424 84.245c-6.861 0-16.186-2.033-20.301-5.801l0.785-3.526c0.394 0.443 0.916 0.831 1.654 1.062 0.372 0.112 0.932 0.286 1.594 0.286 1.598 0 2.965-0.997 4.067-2.965 0.095-0.168 0.622-1.002 1.806-1.002 0.267 0 0.553 0.041 0.851 0.123 1.671 0.467 1.696 1.902 1.694 2.063-0.041 1.547 0.682 4.625 3.706 5.187 0.45 0.083 0.884 0.126 1.288 0.126 3.197 0 4.153-2.526 4.719-4.02 0.266-0.698 1.258-1.446 2.307-1.446 0.883 0 1.64 0.53 2.192 1.533l0.163 0.304c0.604 1.138 1.616 3.04 3.875 3.04 0.52 0 1.079-0.104 1.663-0.313 3.579-1.272 3.226-4.525 3.093-5.749-0.149-1.368 0.054-3.091 1.869-3.529 1.528-0.373 3.059 1.519 3.907 3.241C92.209 79.366 83.268 84.245 72.424 84.245zM93.62 70.62c-0.982-1.371-2.643-2.793-4.496-2.34-2.143 0.517-3.205 2.346-2.914 5.014 0.178 1.644 0.171 3.467-2.185 4.304-0.436 0.156-0.838 0.233-1.201 0.233-1.324 0-1.985-1.044-2.657-2.308l-0.172-0.321c-0.799-1.452-2.008-2.249-3.401-2.249-1.542 0-3.088 1.003-3.647 2.473-0.546 1.443-1.361 3.457-4.415 2.892-2.618-0.486-2.582-3.663-2.579-3.792 0.03-0.917-0.495-2.815-2.702-3.432-0.418-0.115-0.828-0.175-1.221-0.175-1.514 0-2.546 0.882-3.008 1.707-0.853 1.522-1.79 2.262-2.865 2.262-0.454 0-0.86-0.126-1.186-0.227-0.949-0.294-1.371-0.973-1.615-1.751l0.843-3.779 0 0 0.485-2.179 1.908-8.559c3.501-1.377 11.472-2.135 15.832-2.135 11.688 0 21.198 6.276 21.198 13.991C93.622 70.373 93.62 70.494 93.62 70.62z" fill="#000000" data-fill-palette-color="accent"></path><path d="M62.056 62.203c0 2.29 4.605 3.489 9.153 3.489 4.549 0 9.153-1.199 9.153-3.489C80.362 57.619 62.056 57.619 62.056 62.203zM71.209 64.386c-4.717 0-7.846-1.313-7.846-2.183 0-0.87 3.129-2.187 7.846-2.187 4.718 0 7.846 1.316 7.846 2.187C79.055 63.072 75.927 64.386 71.209 64.386z" fill="#000000" data-fill-palette-color="accent"></path></g></svg></g></svg></g><g></g></svg></g><defs></defs></svg><rect width="395.52" height="155.48651754831977" fill="none" stroke="none" visibility="hidden"></rect></g></svg></g></svg>